# xmcd
#
# Track frame offsets:
# 150
# 15173
# 31221
# 40110
# 52806
# 72615
# 86256
# 100486
# 114320
# 129131
# 139063
# 151252
# 164448
# 179765
# 195292
# 207637
# 222065
# 231869
# 245441
# 261788
#
# Disc length: 3722 seconds
#
#
# Revision: 1
# Processed by: cddbd v1.5.2PL0 Copyright (c) Steve Scherf et al.
# Submitted via: HACP 1.20
#
DISCID=090e8814
DTITLE=The Shepherds - St. Patrick's Miracle (Live at the Druid In)
DYEAR=1900
DGENRE=Celtic
TTITLE0=The Tongs by the Fire - Father O'Flynn - Off She Goes
TTITLE1=The Leaving of Liverpool
TTITLE2=The Kid on the Mountain
TTITLE3=The Star of the County Down
TTITLE4=Fiddler's Green
TTITLE5=I Know Where I'm Going
TTITLE6=Saint Anne's Reel - I'll Tell Me
TTITLE7=It's All for Me, Grog
TTITLE8=A Jug of Punch
TTITLE9=Claudine's Polka - O'Brian's Polka
TTITLE10=Golden Jubilee
TTITLE11=Humours of Whiskey
TTITLE12=The Rising of the Moon
TTITLE13=Na Lachan Sa Mhuta - Coorley's
TTITLE14=Whiskey In The Jar
TTITLE15=Miss Sharps Fancy - John Kelly's - Gabriel's Jig
TTITLE16=Beer, Beer, Beer
TTITLE17=The Boys of Malin
TTITLE18=The Wild Rover
TTITLE19=The Mermaid
EXTD=
EXTT0=
EXTT1=
EXTT2=
EXTT3=
EXTT4=
EXTT5=
EXTT6=
EXTT7=
EXTT8=
EXTT9=
EXTT10=
EXTT11=
EXTT12=
EXTT13=
EXTT14=
EXTT15=
EXTT16=
EXTT17=
EXTT18=
EXTT19=
PLAYORDER=
